<svg xmlns="http://www.w3.org/2000/svg" version="1.1" xmlns:xlink="http://www.w3.org/1999/xlink" xmlns:svgjs="http://svgjs.dev/svgjs" width="60" height="60" viewBox="0 0 2000 2250"><g transform="matrix(1,0,0,1,0,0)"><svg viewBox="0 0 320 360" data-background-color="#ffffff" preserveAspectRatio="xMidYMid meet" height="2250" width="2000" xmlns="http://www.w3.org/2000/svg" xmlns:xlink="http://www.w3.org/1999/xlink"><g id="tight-bounds" transform="matrix(1,0,0,1,0,0)"><svg viewBox="0 0 320 360" height="360" width="320"><g><svg></svg></g><g><svg viewBox="0 0 320 360" height="360" width="320"><g><path d="M320 187.111c0-45.764-20.238-86.866-52.203-114.908-28.043-31.964-69.145-52.203-114.908-52.203-84.302 0-152.889 68.587-152.889 152.889 0 45.753 20.231 86.848 52.185 114.891 28.043 31.975 69.152 52.22 114.926 52.22 0.299 0 0.59-0.021 0.889-0.021 0.299 0 0.59 0.021 0.889 0.021 83.456 0 151.111-67.655 151.111-151.111 0-0.299-0.021-0.59-0.021-0.889 0-0.299 0.021-0.59 0.021-0.889zM59.833 263.097c-15.093-21.255-24.071-47.143-24.256-75.097 0.48-72.928 59.492-131.943 132.423-132.423 27.954 0.185 53.845 9.163 75.097 24.256 24.366 23.627 39.57 56.64 39.57 93.056 0 71.559-58.219 129.778-129.778 129.778-36.416 0-69.429-15.204-93.056-39.57zM3.556 172.889c0-82.343 66.99-149.333 149.333-149.333 35.051 0 67.292 12.167 92.8 32.462-22.98-13.824-49.863-21.796-78.578-21.796-84.302 0-152.889 68.587-152.889 152.889 0 28.708 7.968 55.584 21.785 78.56-20.288-25.5-32.452-57.739-32.451-92.782zM167.111 318.667c-35.84 0-68.363-14.418-92.107-37.743 21.952 15.89 48.864 25.298 77.885 25.298 73.522 0 133.333-59.812 133.333-133.333 0-29.02-9.408-55.932-25.298-77.885 23.324 23.744 37.742 56.267 37.743 92.107 0 72.54-59.015 131.556-131.556 131.556z" fill="#2c2c2c" fill-rule="nonzero" stroke="none" stroke-width="1" stroke-linecap="butt" stroke-linejoin="miter" stroke-miterlimit="10" stroke-dasharray="" stroke-dashoffset="0" font-family="none" font-weight="none" font-size="none" text-anchor="none" style="mix-blend-mode: normal" data-fill-palette-color="tertiary"></path></g><g transform="matrix(1,0,0,1,92.587852494577,99)"><svg viewBox="0 0 134.824295010846 162" height="162" width="134.824295010846"><g><svg viewBox="0 0 134.824295010846 162" height="162" width="134.824295010846"><g><svg viewBox="0 0 134.824295010846 162" height="162" width="134.824295010846"><g><svg viewBox="0 0 134.824295010846 162" height="162" width="134.824295010846"><g id="textblocktransform"><svg viewBox="0 0 134.824295010846 162" height="162" width="134.824295010846" id="textblock"><g><svg viewBox="0 0 134.824295010846 162" height="162" width="134.824295010846"><g transform="matrix(1,0,0,1,0,0)"><svg width="134.824295010846" viewBox="2.12 -34.3 28.099999999999998 33.76" height="162" data-palette-color="#2c2c2c"><path d="M14.62-14.04L17.9-14.04Q20.92-14.04 20.92-14.82L20.92-14.82 20.92-14.99Q20.92-15.41 19.29-21.91 17.65-28.42 17.09-28.42L17.09-28.42 16.99-28.42Q16.94-28.42 16.06-26.51L16.06-26.51Q11.52-16.77 11.52-14.65L11.52-14.65 11.52-14.5Q11.52-14.14 12.45-14.14L12.45-14.14 12.84-14.09 14.62-14.04ZM17.33-34.3L17.33-34.3 17.9-34.3Q19.97-34.3 21.61-30.52L21.61-30.52Q24.39-24.15 27.93-9.94L27.93-9.94Q28.39-8.13 29.31-6.32 30.22-4.52 30.22-4.03L30.22-4.03Q30.22-2.64 29.3-1.59 28.37-0.54 27.1-0.54L27.1-0.54 26.56-0.54Q24.44-0.54 23.9-1.88L23.9-1.88Q23.8-2.1 23.69-3.14 23.58-4.17 23.39-5.08L23.39-5.08Q22.71-8.25 21.69-9.44 20.68-10.62 15.99-10.62 11.3-10.62 10.19-9.55 9.08-8.47 7.89-5.15L7.89-5.15Q7.52-4.13 7.31-2.88 7.1-1.64 6.88-1.27L6.88-1.27Q6.45-0.56 5.09-0.56 3.74-0.56 2.93-1.49 2.12-2.42 2.12-3.67 2.12-4.93 3.39-6.69L3.39-6.69Q4.64-8.45 8.06-17.43L8.06-17.43Q13.43-31.59 15.28-33.35L15.28-33.35Q16.31-34.3 17.33-34.3Z" opacity="1" transform="matrix(1,0,0,1,0,0)" fill="#2c2c2c" class="wordmark-text-0" data-fill-palette-color="primary" id="text-0"></path></svg></g></svg></g></svg></g></svg></g><g></g></svg></g></svg></g></svg></g></svg></g><defs></defs></svg><rect width="320" height="360" fill="none" stroke="none" visibility="hidden"></rect></g></svg></g></svg>